name Walk9.mot
datacolumns 19
datarows 15
range 1.59600000 1.61000000
endheader

                time	   L_ground_force_vx	   L_ground_force_vy	   L_ground_force_vz	   L_ground_force_px	   L_ground_force_py	   L_ground_force_pz	   R_ground_force_vx	   R_ground_force_vy	   R_ground_force_vz	   R_ground_force_px	   R_ground_force_py	   R_ground_force_pz	   L_ground_torque_x	   L_ground_torque_y	   L_ground_torque_z	   R_ground_torque_x	   R_ground_torque_y	   R_ground_torque_z	
          1.59600000	         30.58433186	        946.57831039	         72.65087224	         -0.13866284	          0.00000000	         -0.05658986	         -0.00122307	          0.06300474	          0.00559631	          0.00010656	          0.00000000	          0.00001945	          0.00000000	         -1.05338591	          0.00000000	          0.00000000	         -0.00039720	          0.00000000	
          1.59700000	         31.47208657	        948.08355448	         72.80769211	         -0.13856275	          0.00000000	         -0.05660981	         -0.00208655	          0.07387265	          0.00648311	          0.00011766	          0.00000000	          0.00002140	          0.00000000	         -1.06550564	          0.00000000	          0.00000000	         -0.00031284	          0.00000000	
          1.59800000	         32.36962555	        949.59719155	         72.96175912	         -0.13846348	          0.00000000	         -0.05662925	         -0.00302166	          0.08544537	          0.00742554	          0.00012930	          0.00000000	          0.00002344	          0.00000000	         -1.07805692	          0.00000000	          0.00000000	         -0.00021935	          0.00000000	
          1.59900000	         33.27708065	        951.11912472	         73.11309259	         -0.13836501	          0.00000000	         -0.05664815	         -0.00403118	          0.09774061	          0.00842488	          0.00014148	          0.00000000	          0.00002558	          0.00000000	         -1.09102571	          0.00000000	          0.00000000	         -0.00011626	          0.00000000	
          1.60000000	         34.19456891	        952.64925637	         73.26171913	         -0.13826733	          0.00000000	         -0.05666654	         -0.00511786	          0.11077473	          0.00948228	          0.00015422	          0.00000000	          0.00002782	          0.00000000	         -1.10439701	          0.00000000	          0.00000000	         -0.00000312	          0.00000000	
          1.60100000	         35.12219141	        954.18748508	         73.40767175	         -0.13817041	          0.00000000	         -0.05668442	         -0.00628439	          0.12456255	          0.01059879	          0.00016750	          0.00000000	          0.00003014	          0.00000000	         -1.11815476	          0.00000000	          0.00000000	          0.00012055	          0.00000000	
          1.60200000	         36.06003237	        955.73370113	         73.55098947	         -0.13807424	          0.00000000	         -0.05670179	         -0.00753336	          0.13911717	          0.01177527	          0.00018132	          0.00000000	          0.00003256	          0.00000000	         -1.13228180	          0.00000000	          0.00000000	          0.00025521	          0.00000000	
          1.60300000	         37.00815841	        957.28778214	         73.69171736	         -0.13797879	          0.00000000	         -0.05671866	         -0.00886728	          0.15444975	          0.01301245	          0.00019568	          0.00000000	          0.00003507	          0.00000000	         -1.14675989	          0.00000000	          0.00000000	          0.00040134	          0.00000000	
          1.60400000	         37.96661809	        958.84958994	         73.82990695	         -0.13788405	          0.00000000	         -0.05673505	         -0.01028854	          0.17056923	          0.01431085	          0.00021057	          0.00000000	          0.00003766	          0.00000000	         -1.16156975	          0.00000000	          0.00000000	          0.00055938	          0.00000000	
          1.60500000	         38.93544181	        960.41896887	         73.96561644	         -0.13778998	          0.00000000	         -0.05675096	         -0.01179937	          0.18748219	          0.01567081	          0.00022597	          0.00000000	          0.00004034	          0.00000000	         -1.17669126	          0.00000000	          0.00000000	          0.00072981	          0.00000000	
          1.60600000	         39.91464200	        961.99574484	         74.09891074	         -0.13769656	          0.00000000	         -0.05676640	         -0.01340187	          0.20519250	          0.01709242	          0.00024186	          0.00000000	          0.00004311	          0.00000000	         -1.19210362	          0.00000000	          0.00000000	          0.00091305	          0.00000000	
          1.60700000	         40.90421379	        963.57972451	         74.22986110	         -0.13760376	          0.00000000	         -0.05678139	         -0.01509793	          0.22370111	          0.01857554	          0.00025824	          0.00000000	          0.00004595	          0.00000000	         -1.20778559	          0.00000000	          0.00000000	          0.00110955	          0.00000000	
          1.60800000	         41.90413597	        965.17069419	         74.35854444	         -0.13751155	          0.00000000	         -0.05679593	         -0.01688925	          0.24300577	          0.02011977	          0.00027507	          0.00000000	          0.00004887	          0.00000000	         -1.22371574	          0.00000000	          0.00000000	          0.00131973	          0.00000000	
          1.60900000	         42.91437201	        966.76841855	         74.48504227	         -0.13741990	          0.00000000	         -0.05681002	         -0.01877727	          0.26310073	          0.02172440	          0.00029233	          0.00000000	          0.00005185	          0.00000000	         -1.23987266	          0.00000000	          0.00000000	          0.00154399	          0.00000000	
          1.61000000	         43.93487064	        968.37263957	         74.60943941	         -0.13732877	          0.00000000	         -0.05682368	         -0.02076319	          0.28397642	          0.02338842	          0.00030998	          0.00000000	          0.00005490	          0.00000000	         -1.25623498	          0.00000000	          0.00000000	          0.00178271	          0.00000000	
